<svg width="196" height="40" viewBox="0 0 196 40" fill="none" xmlns="http://www.w3.org/2000/svg">
<path d="M50.3157 35H0.684259C0.306274 35 0 34.7683 0 34.4823V20.1237C0 19.8377 0.306274 19.606 0.684259 19.606H35.6283L46.1404 4.27949C46.3142 4.0256 46.7275 3.9264 47.0628 4.05852L49.7924 5.13023C49.9536 5.19339 50.0746 5.30253 50.1296 5.43341C50.1844 5.56429 50.1682 5.70636 50.0845 5.82813L40.6348 19.606H50.3157C50.6937 19.606 51 19.8377 51 20.1237V34.4823C51 34.7683 50.6937 35 50.3157 35ZM1.36852 33.9645H49.6315V20.6415H39.9317L36.4891 25.6601C36.4609 25.7183 36.4187 25.7728 36.364 25.8208L32.0315 29.6032C31.8241 29.7842 31.48 29.8339 31.1992 29.7235C30.9184 29.6133 30.7739 29.3716 30.8502 29.1393L32.4325 24.3161C32.4445 24.2656 32.4664 24.2163 32.4985 24.1697L34.9183 20.6415H1.36852V33.9645ZM33.5618 25.1706L32.8655 27.2939L34.7593 25.6407L33.5618 25.1706ZM34.7858 24.4818L35.5442 24.7796L48.5547 5.81053L47.0398 5.21576L36.6952 20.2983C36.6848 20.3198 36.6727 20.3414 36.6582 20.3621L34.035 24.1871L34.7858 24.4818ZM20.2995 30.9617H5.70207C5.32408 30.9617 5.01781 30.73 5.01781 30.444C5.01781 30.158 5.32408 29.9262 5.70207 29.9262H20.2995C20.6775 29.9262 20.9838 30.158 20.9838 30.444C20.9838 30.73 20.6775 30.9617 20.2995 30.9617ZM20.2995 27.7344H5.70207C5.32408 27.7344 5.01781 27.5026 5.01781 27.2166C5.01781 26.9306 5.32408 26.6989 5.70207 26.6989H20.2995C20.6775 26.6989 20.9838 26.9306 20.9838 27.2166C20.9838 27.5026 20.6775 27.7344 20.2995 27.7344ZM20.2995 24.5072H5.70207C5.32408 24.5072 5.01781 24.2755 5.01781 23.9895C5.01781 23.7035 5.32408 23.4718 5.70207 23.4718H20.2995C20.6775 23.4718 20.9838 23.7035 20.9838 23.9895C20.9838 24.2755 20.6775 24.5072 20.2995 24.5072Z" fill="#000002"/>
<line x1="60.5" y1="12" x2="60.5" y2="40" stroke="black"/>
<path d="M83.3438 32.6221C83.3438 32.874 83.1943 33 82.8955 33H80.7861C80.5635 33 80.3174 32.9209 80.0479 32.7627C79.7842 32.5986 79.582 32.4023 79.4414 32.1738L77.9473 29.8359C77.332 28.875 76.5879 28.3945 75.7148 28.3945H73.5703V32.1738C73.5703 32.4023 73.4883 32.5986 73.3242 32.7627C73.166 32.9209 72.9727 33 72.7441 33H71.0918C70.8633 33 70.667 32.9209 70.5029 32.7627C70.3389 32.5986 70.2568 32.4023 70.2568 32.1738V21.2314C70.2568 21.0029 70.3359 20.8066 70.4941 20.6426C70.6523 20.4785 70.8457 20.3965 71.0742 20.3965H78.3252C79.667 20.3965 80.7656 20.7568 81.6211 21.4775C82.4824 22.1982 82.9131 23.1709 82.9131 24.3955C82.9131 26.1006 81.8086 27.1699 79.5996 27.6035C79.9512 27.7324 80.2764 27.9551 80.5752 28.2715C80.874 28.582 81.2168 29.0361 81.6035 29.6338L83.2031 32.1738C83.2969 32.3379 83.3438 32.4873 83.3438 32.6221ZM73.5703 25.9072H77.3145C77.918 25.9072 78.4482 25.7871 78.9053 25.5469C79.3682 25.3066 79.5996 24.9229 79.5996 24.3955C79.5996 23.8682 79.3682 23.4844 78.9053 23.2441C78.4482 23.0039 77.918 22.8838 77.3145 22.8838H73.5703V25.9072ZM84.8115 32.1562V21.2139C84.8115 20.9854 84.8936 20.792 85.0576 20.6338C85.2217 20.4756 85.418 20.3965 85.6465 20.3965H95.7803C96.0088 20.3965 96.2021 20.4785 96.3604 20.6426C96.5244 20.8066 96.6064 21.0029 96.6064 21.2314V22.0576C96.6064 22.2861 96.5244 22.4824 96.3604 22.6465C96.2021 22.8047 96.0088 22.8838 95.7803 22.8838H88.125V25.4414H94.7168C94.9453 25.4414 95.1387 25.5234 95.2969 25.6875C95.4609 25.8457 95.543 26.0391 95.543 26.2676V27.0938C95.543 27.3223 95.4609 27.5186 95.2969 27.6826C95.1387 27.8408 94.9453 27.9199 94.7168 27.9199H88.125V30.5127H95.7627C95.9854 30.5127 96.1758 30.5918 96.334 30.75C96.4922 30.9082 96.5713 31.1016 96.5713 31.3301V32.1738C96.5713 32.4023 96.4893 32.5986 96.3252 32.7627C96.1611 32.9209 95.9648 33 95.7363 33H85.6465C85.418 33 85.2217 32.9209 85.0576 32.7627C84.8936 32.5986 84.8115 32.3965 84.8115 32.1562ZM99.1289 31.5146C98.0449 30.4775 97.5029 28.875 97.5029 26.707C97.5029 24.5332 98.0449 22.9277 99.1289 21.8906C100.219 20.8477 101.851 20.3262 104.024 20.3262H105.984C107.314 20.3262 108.489 20.6719 109.509 21.3633C110.534 22.0547 111.047 23.001 111.047 24.2021C111.047 24.5479 110.944 24.7969 110.739 24.9492C110.534 25.0957 110.335 25.1689 110.142 25.1689H109.096C108.557 25.1689 108.138 24.8467 107.839 24.2021C107.405 23.2764 106.685 22.8135 105.677 22.8135H104.112C102.829 22.8135 101.959 23.0889 101.502 23.6396C101.045 24.1904 100.816 25.21 100.816 26.6982C100.816 28.1865 101.045 29.209 101.502 29.7656C101.959 30.3164 102.829 30.5918 104.112 30.5918H105.861C106.869 30.5918 107.587 30.1289 108.015 29.2031C108.313 28.5527 108.735 28.2275 109.28 28.2275H110.326C110.602 28.2275 110.818 28.3301 110.977 28.5352C111.141 28.7402 111.223 28.9629 111.223 29.2031C111.223 30.4043 110.713 31.3506 109.693 32.042C108.674 32.7275 107.499 33.0703 106.169 33.0703H104.024C101.851 33.0703 100.219 32.5518 99.1289 31.5146ZM112.937 32.1914V21.2314C112.937 21.0029 113.019 20.8066 113.183 20.6426C113.347 20.4785 113.543 20.3965 113.771 20.3965H115.406C115.646 20.3965 115.846 20.4785 116.004 20.6426C116.168 20.8066 116.25 21.0029 116.25 21.2314V32.1738C116.25 32.4023 116.165 32.5986 115.995 32.7627C115.831 32.9209 115.635 33 115.406 33H113.771C113.543 33 113.347 32.9238 113.183 32.7715C113.019 32.6133 112.937 32.4199 112.937 32.1914ZM117.735 32.1914L119.941 23.8242C120.539 21.5449 122.484 20.4023 125.777 20.3965H130.515C130.731 20.3965 130.91 20.4785 131.051 20.6426C131.197 20.8066 131.271 20.9971 131.271 21.2139V32.1914C131.271 32.4199 131.188 32.6133 131.024 32.7715C130.86 32.9238 130.664 33 130.436 33H128.783C128.543 33 128.344 32.9238 128.186 32.7715C128.033 32.6133 127.957 32.4141 127.957 32.1738V29.959H121.708L121.119 32.1738C121.061 32.4141 120.929 32.6133 120.724 32.7715C120.519 32.9238 120.302 33 120.073 33H118.342C118.113 33 117.949 32.9355 117.85 32.8066C117.75 32.6719 117.7 32.5547 117.7 32.4551C117.706 32.3555 117.718 32.2676 117.735 32.1914ZM122.358 27.4717H127.957V22.8838H125.452C124.89 22.8838 124.397 23.0449 123.976 23.3672C123.56 23.6836 123.278 24.1113 123.132 24.6504L122.358 27.4717ZM133.784 32.1738V21.2314C133.784 21.0029 133.863 20.8066 134.021 20.6426C134.18 20.4785 134.373 20.3965 134.602 20.3965H141.308C144.853 20.3965 146.625 22.0312 146.625 25.3008C146.625 28.5645 144.853 30.1963 141.308 30.1963H137.098V32.1738C137.098 32.4023 137.016 32.5986 136.852 32.7627C136.693 32.9209 136.5 33 136.271 33H134.619C134.391 33 134.194 32.9209 134.03 32.7627C133.866 32.5986 133.784 32.4023 133.784 32.1738ZM137.098 27.709H140.306C141.29 27.709 142.037 27.5449 142.547 27.2168C143.057 26.8828 143.312 26.2441 143.312 25.3008C143.312 24.3516 143.057 23.7129 142.547 23.3848C142.037 23.0508 141.29 22.8838 140.306 22.8838H137.098V27.709ZM148.251 32.1738V21.2314C148.251 21.0029 148.33 20.8066 148.488 20.6426C148.646 20.4785 148.84 20.3965 149.068 20.3965H155.774C159.319 20.3965 161.092 22.0312 161.092 25.3008C161.092 28.5645 159.319 30.1963 155.774 30.1963H151.564V32.1738C151.564 32.4023 151.482 32.5986 151.318 32.7627C151.16 32.9209 150.967 33 150.738 33H149.086C148.857 33 148.661 32.9209 148.497 32.7627C148.333 32.5986 148.251 32.4023 148.251 32.1738ZM151.564 27.709H154.772C155.757 27.709 156.504 27.5449 157.014 27.2168C157.523 26.8828 157.778 26.2441 157.778 25.3008C157.778 24.3516 157.523 23.7129 157.014 23.3848C156.504 23.0508 155.757 22.8838 154.772 22.8838H151.564V27.709Z" fill="#000002"/>
</svg>
